# xmcd
#
# Track frame offsets: 
#        150
#        17310
#        34073
#        49012
#        72070
#        89205
#        106629
#        127312
#        145557
#        162073
#        180272
#        198393
#
# Disc length: 2894 seconds
#
# Revision: 1
# Processed by: cddbd v1.5.2PL0 Copyright (c) Steve Scherf et al.
# Submitted via: ExactAudioCopy v0.99pb5
#
DISCID=940b4c0c
DTITLE=Charanga La Crisis - Salsa Antigua
DYEAR=2007
DGENRE=Charanga
TTITLE0=Mambo
TTITLE1=Bilongo
TTITLE2=Pregúntame como estoy
TTITLE3=Isla del Encanto
TTITLE4=Bomba Carambomba
TTITLE5=Cuca la Loca
TTITLE6=Guagancó pa' las Tumbadoras
TTITLE7=La Música
TTITLE8=El Cumaco de San Juan
TTITLE9=Bommaye
TTITLE10=Bravo Salsero "Bravo Rumbero"
TTITLE11=Acuyuyé
EXTD=YEAR: 2007
EXTT0=
EXTT1=
EXTT2=
EXTT3=
EXTT4=
EXTT5=
EXTT6=
EXTT7=
EXTT8=
EXTT9=
EXTT10=
EXTT11=
PLAYORDER=
